<?xml version="1.0" encoding="utf-8"?>
<!-- Generator: Adobe Illustrator 23.0.2, SVG Export Plug-In . SVG Version: 6.00 Build 0)  -->
<svg version="1.1" id="Layer_1" xmlns="http://www.w3.org/2000/svg" xmlns:xlink="http://www.w3.org/1999/xlink" x="0px" y="0px"
	 viewBox="0 0 458.23 82.19" style="enable-background:new 0 0 458.23 82.19;" xml:space="preserve">
<style type="text/css">
	.st0{fill:#53A3DA;}
	.st1{fill:#F1606D;}
	.st2{fill:#FFFFFF;}
	.st3{fill:#EE0000;}
</style>
<g>
	<g>
		<g>
			<path class="st0" d="M284.81,13.67c-15.71,0-28.48,12.78-28.48,28.48c0,15.71,12.78,28.48,28.48,28.48
				c15.7,0,28.48-12.78,28.48-28.48C313.29,26.45,300.52,13.67,284.81,13.67z"/>
			<path class="st1" d="M284.81,16.29c-4.58,0-8.46,7.33-9.87,17.51c-0.04,0.33-0.09,0.66-0.13,0.99c-0.19,1.6-0.32,3.27-0.39,4.98
				c-0.03,0.78-0.05,1.58-0.05,2.38c0,0.8,0.02,1.6,0.05,2.38c0.06,1.72,0.19,3.38,0.39,4.98c2.15,0.28,4.44,0.47,6.84,0.56
				c1.04,0.04,2.09,0.06,3.16,0.06c1.07,0,2.12-0.02,3.15-0.06c2.4-0.09,4.69-0.28,6.84-0.56c0.24-0.03,0.47-0.06,0.7-0.1
				c8.94-1.26,15.17-4.04,15.17-7.27C310.68,27.87,299.1,16.29,284.81,16.29z"/>
			<path class="st2" d="M295.51,34.89c-0.26-0.38-0.54-0.74-0.83-1.09c-2.37-2.8-5.91-4.58-9.86-4.58c-1.28,0-2.42,1.96-3.16,5.01
				c-0.29,1.22-0.52,2.6-0.66,4.11c-0.11,1.21-0.18,2.49-0.18,3.82c0,1.33,0.06,2.61,0.18,3.81c1.21,0.11,2.49,0.18,3.82,0.18
				c1.33,0,2.61-0.06,3.81-0.18c2.65-0.25,4.94-0.76,6.57-1.43c1.6-0.66,2.55-1.49,2.55-2.38
				C297.74,39.46,296.92,36.96,295.51,34.89z"/>
		</g>
		<g>
			<path class="st2" d="M340.13,28.12c3.34,0,6.05,1.63,7.75,3.46l-2.67,3c-1.42-1.38-2.96-2.25-5.05-2.25
				c-4.46,0-7.67,3.75-7.67,9.88c0,6.21,2.96,9.97,7.5,9.97c2.42,0,4.21-1,5.75-2.71l2.67,2.96c-2.21,2.54-5.05,3.96-8.51,3.96
				c-6.92,0-12.38-5-12.38-14.05C327.53,33.42,333.12,28.12,340.13,28.12z"/>
			<path class="st2" d="M359.22,34.92c5.13,0,9.76,3.92,9.76,10.76c0,6.8-4.63,10.72-9.76,10.72c-5.09,0-9.71-3.92-9.71-10.72
				C349.51,38.84,354.14,34.92,359.22,34.92z M359.22,52.47c3,0,4.84-2.71,4.84-6.8c0-4.13-1.83-6.84-4.84-6.84
				c-3,0-4.79,2.71-4.79,6.84C354.43,49.76,356.22,52.47,359.22,52.47z"/>
			<path class="st2" d="M370.57,35.42h3.96l0.33,3.63h0.17c1.46-2.67,3.63-4.13,5.8-4.13c1.04,0,1.71,0.13,2.33,0.42l-0.83,4.17
				c-0.71-0.21-1.25-0.33-2.12-0.33c-1.63,0-3.59,1.12-4.84,4.21v12.51h-4.79V35.42L370.57,35.42z"/>
			<path class="st2" d="M392.13,34.92c5.55,0,8.46,4,8.46,9.72c0,0.92-0.08,1.75-0.21,2.25h-13.01c0.42,3.71,2.75,5.8,6.04,5.8
				c1.75,0,3.25-0.54,4.75-1.5l1.63,3c-1.96,1.29-4.42,2.21-7,2.21c-5.67,0-10.09-3.96-10.09-10.72
				C382.7,39.01,387.33,34.92,392.13,34.92z M396.42,43.84c0-3.25-1.38-5.21-4.17-5.21c-2.42,0-4.5,1.79-4.92,5.21H396.42z"/>
			<path class="st2" d="M407.89,42.05c0-8.67,4.71-14.14,11.34-14.14c6.59,0,11.3,5.46,11.3,14.14c0,8.72-4.71,14.34-11.3,14.34
				C412.6,56.39,407.89,50.77,407.89,42.05z M428.53,42.05c0-7.59-3.75-12.38-9.3-12.38c-5.59,0-9.34,4.79-9.34,12.38
				c0,7.63,3.75,12.59,9.34,12.59C424.78,54.64,428.53,49.68,428.53,42.05z"/>
			<path class="st2" d="M434.16,50.93c2,2.25,4.88,3.71,8.09,3.71c4.17,0,6.84-2.25,6.84-5.5c0-3.42-2.25-4.55-4.96-5.75l-4.17-1.88
				c-2.38-1.04-5.55-2.75-5.55-6.84c0-3.96,3.42-6.76,7.97-6.76c3.34,0,6,1.5,7.67,3.3l-1.12,1.29c-1.59-1.71-3.79-2.84-6.55-2.84
				c-3.63,0-6.05,1.92-6.05,4.92c0,3.17,2.75,4.38,4.75,5.3l4.17,1.83c3.04,1.38,5.75,3.09,5.75,7.3s-3.46,7.38-8.8,7.38
				c-4,0-7.09-1.71-9.26-4.13L434.16,50.93z"/>
		</g>
	</g>
	<g>
		<path class="st3" d="M47.92,45.25c4.02,0,9.84-0.83,9.84-5.61c0.01-0.37-0.02-0.74-0.1-1.1l-2.4-10.41
			c-0.55-2.29-1.04-3.33-5.06-5.34c-3.12-1.59-9.91-4.23-11.92-4.23c-1.87,0-2.41,2.41-4.65,2.41c-2.15,0-3.74-1.8-5.75-1.8
			c-1.93,0-3.19,1.32-4.16,4.02c0,0-2.7,7.63-3.05,8.73c-0.06,0.2-0.08,0.41-0.07,0.62c0,2.96,11.67,12.68,27.31,12.68 M58.38,41.58
			c0.56,2.63,0.56,2.91,0.56,3.26c0,4.5-5.06,7-11.71,7c-15.04,0.01-28.21-8.8-28.21-14.62c0-0.81,0.16-1.61,0.49-2.36
			C14.1,35.12,7.1,36.09,7.1,42.27c0,10.12,23.98,22.6,42.97,22.6c14.56,0,18.23-6.59,18.23-11.78
			C68.3,48.99,64.76,44.35,58.38,41.58"/>
		<path d="M58.38,41.58c0.56,2.63,0.56,2.91,0.56,3.26c0,4.5-5.06,7-11.71,7c-15.04,0.01-28.21-8.8-28.21-14.62
			c0-0.81,0.16-1.61,0.49-2.36l1.18-2.91c-0.05,0.2-0.08,0.4-0.07,0.61c0,2.96,11.67,12.68,27.31,12.68c4.02,0,9.84-0.83,9.84-5.61
			c0.01-0.37-0.02-0.74-0.1-1.1L58.38,41.58z"/>
		<path class="st2" d="M193.35,48.24c0,3.82,2.3,5.68,6.49,5.68c1.29-0.03,2.57-0.21,3.82-0.54v-4.43c-0.8,0.25-1.63,0.38-2.47,0.37
			c-1.73,0-2.37-0.54-2.37-2.16v-6.79h5V35.8h-5v-5.79l-5.47,1.18v4.6h-3.63v4.57h3.62V48.24z M176.3,48.35
			c0-1.18,1.19-1.76,2.98-1.76c1.09,0.01,2.18,0.14,3.25,0.41v2.3c-1.05,0.57-2.22,0.86-3.42,0.85
			C177.36,50.14,176.3,49.46,176.3,48.35 M177.98,53.99c1.93,0,3.49-0.41,4.94-1.39v1.08h5.41V42.22c0-4.36-2.94-6.75-7.84-6.75
			c-2.74,0-5.45,0.64-8.36,1.96l1.96,4.03c2.1-0.88,3.86-1.42,5.41-1.42c2.25,0,3.41,0.88,3.41,2.67v0.88
			c-1.33-0.34-2.69-0.51-4.06-0.51c-4.6,0-7.37,1.93-7.37,5.38C171.48,51.6,173.98,54,177.98,53.99 M148.25,53.7h5.82v-9.28h9.74
			v9.27h5.83V30.02h-5.81v9.1h-9.74v-9.1h-5.82L148.25,53.7z M126.1,44.73c0-2.57,2.03-4.53,4.7-4.53c1.39-0.03,2.74,0.47,3.78,1.39
			v6.25c-1.02,0.96-2.38,1.48-3.78,1.43c-2.64,0-4.7-1.96-4.7-4.53 M134.66,53.7h5.41V28.84l-5.47,1.18v6.73
			c-1.39-0.79-2.97-1.2-4.57-1.18c-5.21,0-9.3,4.02-9.3,9.16c-0.06,5.02,3.95,9.13,8.97,9.2c0.05,0,0.11,0,0.16,0
			c1.72,0.01,3.41-0.54,4.8-1.55L134.66,53.7z M109.83,39.95c1.72,0,3.18,1.12,3.75,2.84h-7.46
			C106.66,41.01,108.01,39.95,109.83,39.95 M100.61,44.77c0,5.21,4.26,9.27,9.74,9.27c3.01,0,5.21-0.81,7.48-2.71l-3.62-3.22
			c-0.85,0.88-2.1,1.35-3.58,1.35c-1.91,0.05-3.66-1.07-4.4-2.84h12.75v-1.36c0-5.68-3.82-9.77-9.03-9.77
			c-5.07-0.08-9.25,3.97-9.32,9.05C100.62,44.62,100.62,44.69,100.61,44.77 M91.18,34.99c1.93,0,3.01,1.22,3.01,2.67
			c0,1.46-1.08,2.67-3.01,2.67h-5.75v-5.34H91.18z M79.6,53.69h5.82v-8.62h4.43l4.47,8.62h6.51l-5.21-9.47
			c2.71-1.1,4.47-3.74,4.46-6.66c0-4.26-3.35-7.54-8.36-7.54H79.6V53.69z"/>
	</g>
	<rect x="229.95" y="3.39" class="st2" width="1" height="76"/>
</g>
</svg>
